<?xml version="1.0" encoding="UTF-8"?>
<svg width="500px" height="500px" viewBox="0 0 500 500" version="1.1" xmlns="http://www.w3.org/2000/svg" xmlns:xlink="http://www.w3.org/1999/xlink">
    <title>asabharwal.com</title>
    <g id="Artboard-Copy" stroke="none" stroke-width="1" fill="none" fill-rule="evenodd">
        <g id="Group-5">
            <path d="M500,250 C500,388.072174 388.072174,500 250,500 C111.927826,500 0,388.072174 0,250 C0,111.929157 111.927826,0 250,0 C388.072174,0 500,111.929157 500,250" id="Fill-1" fill="#414B76"></path>
            <path d="M193.700766,185.991058 C211.12013,184.074941 223.612146,186.081541 238.340962,192.326219 L210.993719,161.338354 L338.624388,161.338354 L338.624388,133.879338 L170.745955,133.879338 L170.745955,161.338354 L171.994092,161.338354 L193.700766,185.991058 Z" id="Fill-2" fill="#FFFFFE"></path>
            <path d="M351.168299,294.081329 C358.5693,283.013093 364.708857,270.619544 369.512455,256.838141 C375.758463,238.951725 379.191505,218.871088 379.808921,196.614861 L347.981424,196.614861 C347.981424,214.287045 345.849745,230.104322 341.586385,244.046732 C338.533905,254.021184 334.428891,262.909836 329.82888,271.288855 L351.168299,294.081329 Z" id="Fill-3" fill="#FFFFFE"></path>
            <path d="M261.857303,331.488184 C249.16303,336.263839 236.372951,338.662976 223.47509,338.662976 C213.497977,338.662976 204.182191,337.627741 195.549021,335.538642 C186.915851,333.460187 179.421705,330.081701 173.079891,325.391207 C166.738077,320.723334 161.696296,314.530551 157.954545,306.83548 C154.203481,299.137747 152.336598,289.662284 152.336598,278.439696 C152.336598,271.9901 153.786992,265.797317 156.697094,259.871993 C159.617841,253.934692 164.189908,248.903555 170.435917,244.736002 C176.67128,240.579093 184.729615,237.456089 194.610922,235.377635 C194.709389,235.356344 194.807856,235.335054 194.907654,235.315095 C214.378859,231.304556 234.444858,239.063498 247.646104,253.928039 L297.117841,309.637801 C286.298435,319.423302 274.542261,326.701884 261.857303,331.488184 L261.857303,331.488184 Z M338.623057,312.734192 L316.463966,287.798063 L277.624015,243.784597 C260.663722,224.564882 237.503992,211.625772 212.10347,208.179423 C208.603896,207.704386 206.622578,207.609911 206.622578,207.609911 C189.56914,207.813498 175.477699,209.945178 164.350915,214.00495 C153.212157,218.055408 144.375399,223.407228 137.819353,230.068395 C131.275548,236.730892 126.692836,244.425963 124.091441,253.166915 C121.491377,261.895891 120.190015,270.94555 120.190015,280.303917 C120.190015,297.785821 123.366244,312.090164 129.708058,323.216947 C136.049606,334.345061 144.109272,343.086012 153.893443,349.426496 C163.668299,355.76964 174.592825,360.139451 186.659038,362.526613 C198.72525,364.915105 210.376304,366.119331 221.609538,366.119331 C238.866564,366.119331 255.62194,363.209229 271.845061,357.390356 C288.068182,351.559506 302.938046,342.829199 316.463966,331.168831 L341.11667,359.254577 L379.810251,359.254577 L338.623057,312.734192 Z" id="Fill-4" fill="#FFFFFE"></path>
        </g>
    </g>
</svg>